<svg width="24" height="20" viewBox="0 0 24 20" fill="none" xmlns="http://www.w3.org/2000/svg">
<path d="M7.47597 0.727539C3.74124 0.727539 0.702148 3.17301 0.702148 6.17825V13.7254C0.702148 16.7306 3.74124 19.1761 7.47597 19.1761H16.8551C20.5898 19.1761 23.6289 16.7306 23.6289 13.7254V6.17825C23.6289 3.17301 20.5898 0.727539 16.8551 0.727539H7.47597ZM7.47597 1.56611H16.8551C20.0266 1.56611 22.5868 3.62628 22.5868 6.17825V13.7254C22.5868 16.2774 20.0266 18.3375 16.8551 18.3375H7.47597C4.30453 18.3375 1.74428 16.2774 1.74428 13.7254V6.17825C1.74428 3.62628 4.30453 1.56611 7.47597 1.56611ZM18.4183 4.08182C17.8428 4.08182 17.3762 4.45726 17.3762 4.92039C17.3762 5.38352 17.8428 5.75897 18.4183 5.75897C18.9939 5.75897 19.4604 5.38352 19.4604 4.92039C19.4604 4.45726 18.9939 4.08182 18.4183 4.08182ZM12.1655 5.33968C9.00618 5.33968 6.43385 7.40957 6.43385 9.95182C6.43385 12.4941 9.00618 14.564 12.1655 14.564C15.3249 14.564 17.8972 12.4941 17.8972 9.95182C17.8972 7.40957 15.3249 5.33968 12.1655 5.33968ZM12.1655 6.17825C14.7617 6.17825 16.8551 7.86277 16.8551 9.95182C16.8551 12.0409 14.7617 13.7254 12.1655 13.7254C9.56939 13.7254 7.47597 12.0409 7.47597 9.95182C7.47597 7.86277 9.56939 6.17825 12.1655 6.17825Z" fill="#FBF6F6"/>
</svg>
