<svg width="24" height="18" viewBox="0 0 24 18" fill="none" xmlns="http://www.w3.org/2000/svg">
<path d="M11.9184 0C8.24218 0 4.78999 0.28125 2.95187 0.674561C1.72718 0.955811 0.667815 1.79956 0.445934 3.09375C0.224053 4.44287 0 6.46875 0 9C0 11.5312 0.221881 13.5 0.500318 14.9062C0.724371 16.1433 1.78157 17.0442 3.00626 17.3254C4.95749 17.7188 8.29657 18 11.9728 18C15.649 18 18.9881 17.7188 20.9372 17.3254C22.1641 17.0442 23.2212 16.2004 23.4431 14.9062C23.6672 13.5 23.9456 11.4763 24 8.94507C24 6.41382 23.7216 4.38794 23.4431 2.98169C23.2212 1.74463 22.1641 0.84375 20.9372 0.5625C18.9881 0.28125 15.5925 0 11.9184 0ZM11.9184 1.125C15.9275 1.125 19.1556 1.46118 20.7153 1.74243C21.5506 1.96875 22.2184 2.53125 22.3294 3.26294C22.6644 5.06251 22.8862 6.97632 22.8862 8.94507C22.8319 11.3621 22.5534 13.3308 22.3294 14.7371C22.1641 15.8049 21.0503 16.1433 20.7153 16.2576C18.7097 16.6509 15.3684 16.9299 12.0272 16.9299C8.68594 16.9299 5.29031 16.7058 3.34125 16.2576C2.50594 16.0313 1.83812 15.4688 1.72718 14.7371C1.28125 13.1616 1.11375 11.0808 1.11375 9.00001C1.11375 6.41163 1.3378 4.50001 1.55968 3.32008C1.72718 2.25001 2.89531 1.91163 3.17375 1.79957C5.01187 1.40626 8.40967 1.125 11.9184 1.125ZM8.91 4.5V13.5L16.7062 9L8.91 4.5ZM10.0237 6.41382L14.4787 9L10.0237 11.5862V6.41382Z" fill="#FBF6F6"/>
</svg>
